HIERARCHY
ROOT Hips
{
  OFFSET 179.979 97.3047 303.174
  CHANNELS 6 Xposition Yposition Zposition Zrotation Xrotation Yrotation
  JOINT Spine
  {
    OFFSET 0.000859786 9.92346 -1.22733
    CHANNELS 3 Zrotation Xrotation Yrotation
    JOINT Spine1
    {
      OFFSET 0 11.732 0
      CHANNELS 3 Zrotation Xrotation Yrotation
      JOINT Spine2
      {
        OFFSET 0 13.4588 0
        CHANNELS 3 Zrotation Xrotation Yrotation
        JOINT Neck
        {
          OFFSET 2.54812e-05 15.0278 0.877907
          CHANNELS 3 Zrotation Xrotation Yrotation
          JOINT Head
          {
            OFFSET 0 10.3218 3.14243
            CHANNELS 3 Zrotation Xrotation Yrotation
            End Site
            {
              OFFSET 0 0 0
            }
          }
        }
        JOINT LeftShoulder
        {
          OFFSET 6.10582 9.10629 0.757062
          CHANNELS 3 Zrotation Xrotation Yrotation
          JOINT LeftArm
          {
            OFFSET 0 12.9223 0
            CHANNELS 3 Zrotation Xrotation Yrotation
            JOINT LeftForeArm
            {
              OFFSET 0 27.4047 0
              CHANNELS 3 Zrotation Xrotation Yrotation
              JOINT LeftHand
              {
                OFFSET -1.28204e-05 27.6145 0
                CHANNELS 3 Zrotation Xrotation Yrotation
                End Site
                {
                  OFFSET 0 0 0
                }
              }
            }
          }
        }
        JOINT RightShoulder
        {
          OFFSET -6.1057 9.10638 0.757076
          CHANNELS 3 Zrotation Xrotation Yrotation
          JOINT RightArm
          {
            OFFSET 0 12.9223 0
            CHANNELS 3 Zrotation Xrotation Yrotation
            JOINT RightForeArm
            {
              OFFSET 0 27.4047 0
              CHANNELS 3 Zrotation Xrotation Yrotation
              JOINT RightHand
              {
                OFFSET 1.28428e-05 27.6145 1.44975e-05
                CHANNELS 3 Zrotation Xrotation Yrotation
                End Site
                {
                  OFFSET 0 0 0
                }
              }
            }
          }
        }
      }
    }
  }
  JOINT LeftUpLeg
  {
    OFFSET 9.12387 -6.65719 -0.0554031
    CHANNELS 3 Zrotation Xrotation Yrotation
    JOINT LeftLeg
    {
      OFFSET 0 40.5994 0
      CHANNELS 3 Zrotation Xrotation Yrotation
      JOINT LeftFoot
      {
        OFFSET 0 42.099 0
        CHANNELS 3 Zrotation Xrotation Yrotation
        JOINT LeftToeBase
        {
          OFFSET 0 15.7216 0
          CHANNELS 3 Zrotation Xrotation Yrotation
          End Site
          {
            OFFSET 0 0 0
          }
        }
      }
    }
  }
  JOINT RightUpLeg
  {
    OFFSET -9.12503 -6.6556 -0.0553527
    CHANNELS 3 Zrotation Xrotation Yrotation
    JOINT RightLeg
    {
      OFFSET 0 40.5994 0
      CHANNELS 3 Zrotation Xrotation Yrotation
      JOINT RightFoot
      {
        OFFSET 0 42.099 0
        CHANNELS 3 Zrotation Xrotation Yrotation
        JOINT RightToeBase
        {
          OFFSET 0 15.7216 0
          CHANNELS 3 Zrotation Xrotation Yrotation
          End Site
          {
            OFFSET 0 0 0
          }
        }
      }
    }
  }
}
MOTION
Frames:	11
Frame Time:	0.0333333
182.402 97.0279 340.136 0.727064 0.0391654 -9.18401 -0.223553 -6.05534 0.229068 -0.45079 1.84229 0.529936 -0.511307 8.43646 0.53607 2.68018 4.29958 -8.56711 0.0860378 -24.7665 -8.02251 -86.808 -15.006 90.1503 17.2914 2.15483 4.7188 22.7996 -23.4849 -1.1286 -16.0178 -12.3107 -19.8938 88.5739 -7.39662 -90.8263 -10.5338 5.99656 17.9193 -29.9454 -14.1648 0.83898 1.74444 -12.7115 -10.7745 -174.643 10.8831 -16.0484 1.89578 -27.5773 -3.41574 13.3106 78.4225 -15.9243 -0.965272 26.367 -3.60229 173.173 11.4539 12.1318 -3.05698 -25.7716 4.30473 -13.9179 79.9152 20.7746 0.963533 26.3682 3.55537 
182.412 97.0405 340.117 0.696599 0.085678 -9.23821 -0.220509 -6.05535 0.229437 -0.444823 1.84229 0.529934 -0.505098 8.43647 0.535355 2.54893 4.17286 -8.56657 0.148892 -24.7777 -8.06499 -86.8086 -14.9868 90.1506 17.224 2.05926 4.76344 22.736 -23.4209 -1.12805 -15.8788 -12.4133 -19.9253 88.5739 -7.30847 -90.8334 -10.4699 5.99978 17.841 -29.8604 -14.147 0.838914 1.76267 -12.6954 -10.6791 -174.604 10.9169 -16.1177 1.90826 -27.546 -3.41435 13.2841 78.3963 -15.8935 -0.965272 26.367 -3.60229 173.22 11.4656 12.1778 -3.07507 -25.6529 4.24911 -13.6266 79.8561 20.4563 0.963533 26.3682 3.55537 
182.436 97.0715 340.077 0.613747 0.199756 -9.35098 -0.208372 -6.05535 0.230909 -0.420569 1.84229 0.524047 -0.480135 8.43649 0.529557 2.13465 3.91595 -8.51433 0.431118 -24.7836 -8.14476 -86.8173 -14.9394 90.1539 17.0693 1.92527 4.80899 22.6478 -23.4141 -1.12799 -15.9889 -12.4097 -19.831 88.5909 -7.27729 -90.8375 -10.5491 6.00404 17.9906 -29.7047 -14.0763 0.838654 1.77671 -12.5941 -10.7859 -174.508 10.9919 -16.2269 1.92134 -27.4619 -3.42265 13.2695 78.3441 -15.867 -0.965272 26.367 -3.60229 173.346 11.4754 12.1917 -3.07176 -25.3515 4.19701 -13.1555 79.6984 19.9283 0.963533 26.3682 3.55537 
182.457 97.1121 340.042 0.551606 0.308098 -9.44075 -0.199505 -6.05536 0.231984 -0.40366 1.83767 0.515771 -0.462279 8.4319 0.521196 2.05157 3.70719 -8.46048 0.415917 -24.8843 -8.1158 -86.8298 -14.9415 90.1542 16.9738 1.90634 4.71469 22.6868 -23.5344 -1.13452 -16.0432 -12.5088 -19.7183 88.6193 -7.32603 -90.836 -10.7104 6.05988 18.1903 -29.6283 -14.0747 0.838648 1.78358 -12.5675 -10.7979 -174.45 11.0175 -16.2215 1.88275 -27.2848 -3.50342 13.366 78.2462 -15.9481 -0.965272 26.367 -3.60229 173.457 11.4543 12.1001 -3.0198 -25.0137 4.23597 -12.9237 79.5147 19.6478 0.963533 26.3682 3.55537 
182.47 97.1585 340.009 0.508351 0.412892 -9.51142 -0.19418 -6.05967 0.226995 -0.39296 1.8291 0.504349 -0.45024 8.42331 0.509649 2.17706 3.63874 -8.43454 0.196538 -25.1703 -8.05157 -86.8365 -15.0076 90.1498 16.9608 1.95631 4.5938 22.8603 -23.7032 -1.14352 -16.0523 -12.6266 -19.6991 88.662 -7.47689 -90.8279 -10.9208 6.14676 18.3388 -29.6936 -14.1287 0.838847 1.71905 -12.6396 -10.6655 -174.418 11.0072 -16.1871 1.8335 -27.0332 -3.59431 13.4304 78.1146 -15.9962 -0.965272 26.367 -3.60229 173.561 11.4169 11.9692 -2.96054 -24.6587 4.31151 -12.807 79.3216 19.4893 0.963533 26.3682 3.55537 
182.474 97.2053 339.978 0.479987 0.514965 -9.55803 -0.191876 -6.06711 0.219494 -0.388178 1.81427 0.488729 -0.443647 8.40851 0.493834 2.3513 3.70383 -8.45633 0.00909419 -25.5463 -8.0235 -86.8299 -15.085 90.1453 16.9651 2.05118 4.43046 23.1307 -23.8864 -1.15351 -16.0192 -12.739 -19.5417 88.7266 -7.72619 -90.8137 -11.181 6.23982 18.4442 -29.8629 -14.1897 0.839072 1.63825 -12.6566 -10.6502 -174.412 10.9811 -16.1432 1.80284 -26.7438 -3.67034 13.4337 77.9691 -15.9881 -0.965272 26.367 -3.60229 173.657 11.3775 11.8433 -2.91467 -24.3143 4.3935 -12.7407 79.1364 19.3911 0.963533 26.3682 3.55537 
182.471 97.2496 339.951 0.464015 0.61442 -9.58061 -0.190656 -6.07813 0.208679 -0.386432 1.79225 0.466736 -0.439326 8.38651 0.471619 2.54788 3.87746 -8.53082 -0.13178 -25.9711 -8.04411 -86.8233 -15.1119 90.1427 16.9254 2.14829 4.36814 23.3682 -24.0706 -1.16352 -15.8864 -12.8413 -19.3598 88.7988 -7.95761 -90.8012 -11.385 6.33013 18.4789 -30.0467 -14.2528 0.839306 1.63287 -12.7277 -10.572 -174.426 10.9527 -16.0785 1.78318 -26.4435 -3.74049 13.4174 77.8194 -15.9676 -0.965272 26.367 -3.60229 173.742 11.3445 11.7483 -2.88747 -23.9968 4.4651 -12.6835 78.9681 19.3107 0.963533 26.3682 3.55537 
182.466 97.2917 339.927 0.454946 0.713691 -9.58255 -0.188136 -6.09283 0.192058 -0.38016 1.76296 0.43278 -0.429089 8.35724 0.437279 2.6668 4.15989 -8.66341 -0.20499 -26.4513 -8.15052 -86.827 -15.0986 90.1425 16.8431 2.23608 4.36343 23.5647 -24.2107 -1.17089 -15.7256 -12.9245 -19.245 88.8645 -8.14981 -90.7911 -11.5518 6.42351 18.6002 -30.2089 -14.2917 0.839451 1.67896 -12.8174 -10.5652 -174.453 10.9255 -15.9947 1.77677 -26.141 -3.80525 13.3919 77.6706 -15.9446 -0.965272 26.367 -3.60229 173.813 11.3121 11.7144 -2.87416 -23.6945 4.50873 -12.5727 78.8172 19.177 0.963533 26.3682 3.55537 
182.459 97.3357 339.909 0.447582 0.811253 -9.56569 -0.18237 -6.11036 0.171346 -0.368278 1.72795 0.389842 -0.412219 8.32227 0.393883 2.72965 4.48747 -8.8718 -0.254321 -26.9347 -8.3544 -86.8394 -15.101 90.1437 16.8113 2.33743 4.32926 23.7198 -24.323 -1.17711 -15.5622 -12.9506 -19.126 88.9259 -8.3831 -90.7767 -11.7999 6.52016 18.9065 -30.2987 -14.274 0.839385 1.7448 -12.8295 -10.7139 -174.489 10.8899 -15.9243 1.78611 -25.8216 -3.84518 13.303 77.5182 -15.8579 -0.965272 26.367 -3.60229 173.874 11.2616 11.7315 -2.86825 -23.3752 4.53083 -12.4029 78.6678 18.9795 0.963533 26.3682 3.55537 
182.452 97.3858 339.898 0.441858 0.908331 -9.53411 -0.17487 -6.13058 0.150313 -0.352937 1.6876 0.345737 -0.391731 8.28198 0.349302 2.72288 4.76048 -9.2003 -0.307687 -27.2952 -8.70573 -86.8568 -15.1051 90.1439 16.8174 2.45267 4.22736 23.8839 -24.4047 -1.18139 -15.4028 -12.8643 -18.9409 88.9979 -8.72034 -90.7545 -12.1941 6.53865 19.1569 -30.2252 -14.1997 0.839109 1.88271 -12.7469 -10.6387 -174.535 10.8294 -15.852 1.79934 -25.4556 -3.87713 13.1711 77.3465 -15.7251 -0.965272 26.367 -3.60229 173.937 11.1778 11.7612 -2.86099 -23.0064 4.55675 -12.2064 78.5003 18.7602 0.963533 26.3682 3.55537 
182.442 97.4401 339.896 0.436969 1.0128 -9.49087 -0.164615 -6.15911 0.126271 -0.332047 1.63073 0.294927 -0.364911 8.22511 0.297925 2.61416 5.07873 -9.63341 -0.302144 -27.607 -9.19958 -86.8804 -15.108 90.1442 16.8324 2.58577 4.08827 24.0708 -24.4531 -1.18444 -15.2567 -12.7838 -18.6747 89.0785 -9.12282 -90.727 -12.7245 6.54036 19.4917 -30.0478 -14.1278 0.838843 1.95848 -12.6205 -10.6236 -174.585 10.7559 -15.7549 1.80336 -25.057 -3.91983 13.0425 77.1602 -15.594 -0.965272 26.367 -3.60229 174.022 11.0783 11.7139 -2.84821 -22.6025 4.63861 -12.128 78.3101 18.6845 0.963533 26.3682 3.55537 
